HIERARCHY
ROOT hips
{
  OFFSET 0 10.6860622 2.3727825e-15
  CHANNELS 6 Xposition Yposition Zposition Yrotation Xrotation Zrotation
  JOINT leftUpperLeg
  {
    OFFSET 0.6642549969 -0.9402397400000004 0
    CHANNELS 3 Yrotation Xrotation Zrotation
    JOINT leftLowerLeg
    {
      OFFSET 0 -3.997221335632195 0
      CHANNELS 3 Yrotation Xrotation Zrotation
      JOINT leftFoot
      {
        OFFSET -0.13777839790000004 -4.6145792000000005 -0.22186036399999998
        CHANNELS 3 Yrotation Xrotation Zrotation
        JOINT leftToes
        {
          OFFSET -0.03777410834999995 -0.9130806927000008 0.85230013
          CHANNELS 3 Yrotation Xrotation Zrotation
          End Site
          {
            OFFSET -0.03777410834999995 -0.9130806927000008 0.85230013
          }
        }
      }
    }
  }
  JOINT rightUpperLeg
  {
    OFFSET -0.6642778626 -0.9402397400000004 0
    CHANNELS 3 Yrotation Xrotation Zrotation
    JOINT rightLowerLeg
    {
      OFFSET 0 -3.997221452859387 0
      CHANNELS 3 Yrotation Xrotation Zrotation
      JOINT rightFoot
      {
        OFFSET 0.1377926176 -4.6145792000000005 -0.22185782299999995
        CHANNELS 3 Yrotation Xrotation Zrotation
        JOINT rightToes
        {
          OFFSET 0.037780746850000047 -0.9130806927000008 0.85230167
          CHANNELS 3 Yrotation Xrotation Zrotation
          End Site
          {
            OFFSET 0.037780746850000047 -0.9130806927000008 0.85230167
          }
        }
      }
    }
  }
  JOINT spine
  {
    OFFSET 0 0.13988381660000015 0
    CHANNELS 3 Yrotation Xrotation Zrotation
    JOINT chest
    {
      OFFSET 0 0.6191039003973773 0
      CHANNELS 3 Yrotation Xrotation Zrotation
      JOINT upperChest
      {
        OFFSET 0 0.9855186130586943 0
        CHANNELS 3 Yrotation Xrotation Zrotation
        JOINT leftShoulder
        {
          OFFSET 0.1807663869 1.5087829790000005 0
          CHANNELS 3 Yrotation Xrotation Zrotation
          JOINT leftUpperArm
          {
            OFFSET 0.5985063006419806 0 0
            CHANNELS 3 Yrotation Xrotation Zrotation
            JOINT leftLowerArm
            {
              OFFSET 2.2993332369501065 0 0
              CHANNELS 3 Yrotation Xrotation Zrotation
              JOINT leftHand
              {
                OFFSET 2.395047042602395 0 0
                CHANNELS 3 Yrotation Xrotation Zrotation
                JOINT leftIndexProximal
                {
                  OFFSET 0.5766295810000004 0.04556643899499946 0.17265095988184
                  CHANNELS 3 Yrotation Xrotation Zrotation
                  JOINT leftIndexIntermediate
                  {
                    OFFSET 0.2957229000000008 -0.019352197700001517 -0.007932640616999987
                    CHANNELS 3 Yrotation Xrotation Zrotation
                    JOINT leftIndexDistal
                    {
                      OFFSET 0.19008243099999922 -0.012484908149998475 -0.002786250786000012
                      CHANNELS 3 Yrotation Xrotation Zrotation
                      End Site
                      {
                        OFFSET 0.19008243099999922 -0.012484908149998475 -0.002786250786000012
                      }
                    }
                  }
                }
                JOINT leftMiddleProximal
                {
                  OFFSET 0.5834975091000001 0.0524350405149987 0.02204081888183999
                  CHANNELS 3 Yrotation Xrotation Zrotation
                  JOINT leftMiddleIntermediate
                  {
                    OFFSET 0.33880573540000003 -0.019871473270000717 -0.00000971183179999946
                    CHANNELS 3 Yrotation Xrotation Zrotation
                    JOINT leftMiddleDistal
                    {
                      OFFSET 0.20676022730000088 -0.012221336379999448 0.0001471936708000235
                      CHANNELS 3 Yrotation Xrotation Zrotation
                      End Site
                      {
                        OFFSET 0.20676022730000088 -0.012221336379999448 0.0001471936708000235
                      }
                    }
                  }
                }
                JOINT leftLittleProximal
                {
                  OFFSET 0.5344154683999995 -0.012880921405001189 -0.24414037221816004
                  CHANNELS 3 Yrotation Xrotation Zrotation
                  JOINT leftLittleIntermediate
                  {
                    OFFSET 0.21758961730000093 -0.011650919939999227 0.011893592810000034
                    CHANNELS 3 Yrotation Xrotation Zrotation
                    JOINT leftLittleDistal
                    {
                      OFFSET 0.1475273964999999 -0.008152365682999818 0.006001092492999946
                      CHANNELS 3 Yrotation Xrotation Zrotation
                      End Site
                      {
                        OFFSET 0.1475273964999999 -0.008152365682999818 0.006001092492999946
                      }
                    }
                  }
                }
                JOINT leftRingProximal
                {
                  OFFSET 0.5799399463000003 0.026911854694997794 -0.12150566991816003
                  CHANNELS 3 Yrotation Xrotation Zrotation
                  JOINT leftRingIntermediate
                  {
                    OFFSET 0.26167887460000006 -0.013480186499999602 0.010996293000000053
                    CHANNELS 3 Yrotation Xrotation Zrotation
                    JOINT leftRingDistal
                    {
                      OFFSET 0.17667108799999987 -0.008990287899999228 0.0055541023999999065
                      CHANNELS 3 Yrotation Xrotation Zrotation
                      End Site
                      {
                        OFFSET 0.17667108799999987 -0.008990287899999228 0.0055541023999999065
                      }
                    }
                  }
                }
                JOINT leftThumbProximal
                {
                  OFFSET 0.11018806699999972 -0.09448718900500053 0.17047963138184
                  CHANNELS 3 Yrotation Xrotation Zrotation
                  JOINT leftThumbIntermediate
                  {
                    OFFSET 0.31062601459999983 -0.08126270900000132 0.15443142000000007
                    CHANNELS 3 Yrotation Xrotation Zrotation
                    JOINT leftThumbDistal
                    {
                      OFFSET 0.21627175790000086 -0.08833193599999878 0.018771167799999988
                      CHANNELS 3 Yrotation Xrotation Zrotation
                      End Site
                      {
                        OFFSET 0.21627175790000086 -0.08833193599999878 0.018771167799999988
                      }
                    }
                  }
                }
              }
            }
          }
        }
        JOINT neck
        {
          OFFSET 0 1.5463305265074576 0
          CHANNELS 3 Yrotation Xrotation Zrotation
          JOINT head
          {
            OFFSET 0 0.8456443600000344 0
            CHANNELS 3 Yrotation Xrotation Zrotation
            JOINT leftEye
            {
              OFFSET 0.30408573140000006 0.5104519199999995 0.1276382305
              CHANNELS 3 Yrotation Xrotation Zrotation
              End Site
              {
                OFFSET 0.30408573140000006 0.5104519199999995 0.1276382305
              }
            }
            JOINT rightEye
            {
              OFFSET -0.30409491089999996 0.5104519199999995 0.1276379445
              CHANNELS 3 Yrotation Xrotation Zrotation
              End Site
              {
                OFFSET -0.30409491089999996 0.5104519199999995 0.1276379445
              }
            }
            JOINT jaw
            {
              OFFSET -3.155239131000001e-7 -0.11984121820000082 0.60178107
              CHANNELS 3 Yrotation Xrotation Zrotation
              End Site
              {
                OFFSET -3.155239131000001e-7 -0.11984121820000082 0.60178107
              }
            }
          }
        }
        JOINT rightShoulder
        {
          OFFSET -0.1807303465 1.5087829790000005 0
          CHANNELS 3 Yrotation Xrotation Zrotation
          JOINT rightUpperArm
          {
            OFFSET -0.5985063796536958 0 0
            CHANNELS 3 Yrotation Xrotation Zrotation
            JOINT rightLowerArm
            {
              OFFSET -2.2993322059002854 0 0
              CHANNELS 3 Yrotation Xrotation Zrotation
              JOINT rightHand
              {
                OFFSET -2.395045314457259 0 0
                CHANNELS 3 Yrotation Xrotation Zrotation
                JOINT rightIndexProximal
                {
                  OFFSET -0.5764487688300002 0.0441371204405987 0.17361932004999997
                  CHANNELS 3 Yrotation Xrotation Zrotation
                  JOINT rightIndexIntermediate
                  {
                    OFFSET -0.29573011380000047 -0.01934826376999843 -0.007698921482999974
                    CHANNELS 3 Yrotation Xrotation Zrotation
                    JOINT rightIndexDistal
                    {
                      OFFSET -0.19008373999999884 -0.012503266380000655 -0.0026365778999999897
                      CHANNELS 3 Yrotation Xrotation Zrotation
                      End Site
                      {
                        OFFSET -0.19008373999999884 -0.012503266380000655 -0.0026365778999999897
                      }
                    }
                  }
                }
                JOINT rightMiddleProximal
                {
                  OFFSET -0.5834852037300005 0.05211639405060153 0.02307162440000001
                  CHANNELS 3 Yrotation Xrotation Zrotation
                  JOINT rightMiddleIntermediate
                  {
                    OFFSET -0.33880114510000003 -0.019952774050000954 0.0002455003561999819
                    CHANNELS 3 Yrotation Xrotation Zrotation
                    JOINT rightMiddleDistal
                    {
                      OFFSET -0.20675694929999955 -0.012273788999999091 0.00030209124000002766
                      CHANNELS 3 Yrotation Xrotation Zrotation
                      End Site
                      {
                        OFFSET -0.20675694929999955 -0.012273788999999091 0.00030209124000002766
                      }
                    }
                  }
                }
                JOINT rightLittleProximal
                {
                  OFFSET -0.5346811737299992 -0.011214256288399227 -0.24363941305000003
                  CHANNELS 3 Yrotation Xrotation Zrotation
                  JOINT rightLittleIntermediate
                  {
                    OFFSET -0.21757715980000092 -0.011771559690000988 0.01201554387
                    CHANNELS 3 Yrotation Xrotation Zrotation
                    JOINT rightLittleDistal
                    {
                      OFFSET -0.1475201849000004 -0.00822055339600003 0.006082065407000015
                      CHANNELS 3 Yrotation Xrotation Zrotation
                      End Site
                      {
                        OFFSET -0.1475201849000004 -0.00822055339600003 0.006082065407000015
                      }
                    }
                  }
                }
                JOINT rightRingProximal
                {
                  OFFSET -0.5800810755299999 0.027657985680600072 -0.12066365025000003
                  CHANNELS 3 Yrotation Xrotation Zrotation
                  JOINT rightRingIntermediate
                  {
                    OFFSET -0.26166445029999974 -0.013623118409999302 0.011164098990000045
                    CHANNELS 3 Yrotation Xrotation Zrotation
                    JOINT rightRingDistal
                    {
                      OFFSET -0.17666387530000027 -0.009072900100000503 0.005668185599999959
                      CHANNELS 3 Yrotation Xrotation Zrotation
                      End Site
                      {
                        OFFSET -0.17666387530000027 -0.009072900100000503 0.005668185599999959
                      }
                    }
                  }
                }
                JOINT rightThumbProximal
                {
                  OFFSET -0.10997596379000074 -0.09577489355940072 0.16989765924999997
                  CHANNELS 3 Yrotation Xrotation Zrotation
                  JOINT rightThumbIntermediate
                  {
                    OFFSET -0.31036620999999986 -0.08229339117999834 0.15440884469999996
                    CHANNELS 3 Yrotation Xrotation Zrotation
                    JOINT rightThumbDistal
                    {
                      OFFSET -0.21631306399999906 -0.08825326400000111 0.018656797720000014
                      CHANNELS 3 Yrotation Xrotation Zrotation
                      End Site
                      {
                        OFFSET -0.21631306399999906 -0.08825326400000111 0.018656797720000014
                      }
                    }
                  }
                }
              }
            }
          }
        }
      }
    }
  }
}
MOTION
Frames: 9
Frame Time: 0.03333333333333333
0 11.682712981546562 0 0 0 0 0 0 -5.826343164929014 -0.3712483961610101 -3.6333298826370974 5.838118207697276 0 0 0 0 0 0 0 0 5.826343164929014 0.3712483961610101 -3.6333298826370974 -5.838118207697276 0 0 0 0 0 0 0 -4.610651315171937 0 0 3.0831277533083026 0 0 0 0 0 1.5275236235667615 0 0 0 0 0 0 0 0 0 0 0 0 0 0 0 0 0 0 0 0 0 0 0 0 0 0 0 0 0 0 0 0 0 0 0 0 0 0 0 0 0 0 0 0 0 0 0 0 0 0 0 0 0 0 0 0 1.5275236235667615 0 0 0 0 0 0 0 0 0 0 0 0 0 0 1.5275236235667615 0 0 0 0 0 0 0 0 0 0 0 0 0 0 0 0 0 0 0 0 0 0 0 0 0 0 0 0 0 0 0 0 0 0 0 0 0 0 0 0 0 0 0 0 0 0 0 0 0 0 0 0 0 0 0
5.366740186748297 -9.88135155242062 4.07040229563269 0.008854130706853936 -58.98651599001851 179.99499360156605 68.80742926911918 -56.78372755398691 -48.8837261630118 139.7491317507213 69.09121121368948 177.05099269239938 3.841265683530903 -10.430395030944856 19.939006730801992 0 0 0 -60.36917949545214 -47.82184728195895 38.75746052454751 168.75103367197718 63.71652657231487 131.12937635141986 -3.631501494625751 -6.2144747254103 -2.257547101602981 0 0 0 -5.2638589490162304e-20 15.046704543301518 -3.9857439788289285e-19 -0.46944430614868493 15.650238515121076 -0.13991002248498208 0 0 0 3.591671719589378 -0.2919712533683598 -41.56391402773972 4.239491440163803 55.16951381018475 3.8559355613663056 -4.108208084975261 36.29627545889684 -1.0506855764527185 -4.993824452197218 14.170757062652017 0.2801327581372652 0 0 0 0 0 0 0 0 0 0 0 0 0 0 0 0 0 0 0 0 0 0 0 0 0 0 0 0 0 0 0 0 0 0 0 0 0 0 0 0 0 0 0 0 0 0 15.524525997657134 0 0 0.13463699958950387 0 0 0 0 0 0 0 0 0 0 -3.4687196827303897 -0.45869046882652353 41.07621470130916 -4.427827063532009 55.284392775615316 -3.9096607779131323 4.188037466099675 36.27164812536633 0.9138769535933767 5.042374773493186 14.195918075484853 -0.2024516743983099 0 0 0 0 0 0 0 0 0 0 0 0 0 0 0 0 0 0 0 0 0 0 0 0 0 0 0 0 0 0 0 0 0 0 0 0 0 0 0 0 0 0 0 0 0
5.366740186748297 -9.88135155242062 4.060280283708789 0.008855176615456291 -58.99058592409228 179.9949923810257 69.27263283240626 -56.95399586241121 -49.5079127218821 139.79966567459974 68.76253235878896 177.10748185109136 3.841265683530903 -10.430395030944856 19.939006730801992 0 0 0 -60.593135544413386 -48.1466960779607 39.07676629501794 169.46386376505282 63.460724205551664 131.91862402276539 -3.4766898831901467 -6.292805428030339 -2.257722967908636 0 0 0 1.4023088212966147e-9 14.466053833361356 -9.598119913187496e-10 -0.4730920770514679 17.179004198009338 -0.15295277920115616 0 0 0 3.4862202608396484 -0.6187507528087682 -40.09239924626575 2.577135810624768 55.23480173232436 1.802641792624938 -4.898152024102482 36.29727969711347 -1.18034100580097 -4.55872608139968 13.487980744863588 0.4474960574290482 0 0 0 0 0 0 0 0 0 0 0 0 0 0 0 0 0 0 0 0 0 0 0 0 0 0 0 0 0 0 0 0 0 0 0 0 0 0 0 0 0 0 0 0 0 0 15.524525997657134 0 0 0.13463699958950387 0 0 0 0 0 0 0 0 0 0 -3.362720173293485 -0.7786552349190464 39.619073914042986 -2.7558606737991633 55.34911908219499 -1.8506878371741087 4.971248708360749 36.27371952158635 1.044644968433616 4.606878734567385 13.511672713580321 -0.3729675815688212 0 0 0 0 0 0 0 0 0 0 0 0 0 0 0 0 0 0 0 0 0 0 0 0 0 0 0 0 0 0 0 0 0 0 0 0 0 0 0 0 0 0 0 0 0
5.366740186748297 -9.88135155242062 4.050158271784887 0.008856223795946647 -58.994656339191536 179.99499116019695 69.74334229145072 -57.12147212255098 -50.13746595588387 139.84858690939373 68.43383124649992 177.16236115403484 3.841265683530903 -10.430395030944856 19.939006730801992 0 0 0 -60.82124500073616 -48.470703746635905 39.40002154519987 170.16245232526583 63.200620535721775 132.69371356061592 -3.32185468541916 -6.371135484820421 -2.25811200491096 0 0 0 4.8343234318884104e-20 13.885402883423472 3.9700592663200287e-19 -0.47713885127702055 18.707768441004692 -0.1662114838719335 0 0 0 3.37240236446233 -0.942713867168074 -38.62017138426693 0.9097256403663598 55.2660114005964 -0.25560356844494314 -5.688099985993026 36.29684325444361 -1.31000176870478 -4.126884958217602 12.803993332616415 0.6090720526673765 0 0 0 0 0 0 0 0 0 0 0 0 0 0 0 0 0 0 0 0 0 0 0 0 0 0 0 0 0 0 0 0 0 0 0 0 0 0 0 0 0 0 0 0 0 0 15.524525997657134 0 0 0.13463699958950387 0 0 0 0 0 0 0 0 0 0 -3.248607422060898 -1.095820500632455 38.16121583127732 -1.0788706692295826 55.37957731611772 0.21320764652105728 5.754476887182163 36.27435069413969 1.1754380883255588 4.174689331688746 12.826193754812564 -0.5376686014902636 0 0 0 0 0 0 0 0 0 0 0 0 0 0 0 0 0 0 0 0 0 0 0 0 0 0 0 0 0 0 0 0 0 0 0 0 0 0 0 0 0 0 0 0 0
5.366740186748297 -9.88135155242062 4.029914247937083 0.008856223795946647 -58.994656339191536 179.99499116019695 70.70193555696515 -57.44809247383722 -51.41357151381972 139.94186010678774 67.77605323774355 177.26757036413747 3.841265683530903 -10.430395030944856 19.939006730801992 0 0 0 -61.290644126995964 -49.11657948999552 40.05924317792175 171.51886171239136 62.66750682044256 134.20352334085322 -3.012064698690985 -6.5278114324279715 -2.2595291778453346 0 0 0 -4.409857681195938e-20 12.722180767931432 -3.9557253658006935e-19 -0.4866210909271207 21.802565916395494 -0.19381735569236613 0 0 0 3.1167362581551514 -1.588833477775129 -35.63817808199246 -2.4491944624849458 55.225190326918074 -4.401633695362416 -7.271990212862877 36.29163155491985 -1.569897506458152 -3.2696697619233457 11.428163278336354 0.9161427643738078 0 0 0 0 0 0 0 0 0 0 0 0 0 0 0 0 0 0 0 0 0 0 0 0 0 0 0 0 0 0 0 0 0 0 0 0 0 0 0 0 0 0 0 0 0 0 15.524527769861592 0 0 0.13463699958950387 0 0 0 0 0 0 0 0 0 0 -2.9931896250807855 -1.7281088255683048 35.2091062911717 2.2990449302035354 55.33664572186805 4.370323395068963 7.324854615849999 36.27127112869334 1.4376515091485493 3.3169076919430376 11.44727199384396 -0.8509376406039207 0 0 0 0 0 0 0 0 0 0 0 0 0 0 0 0 0 0 0 0 0 0 0 0 0 0 0 0 0 0 0 0 0 0 0 0 0 0 0 0 0 0 0 0 0
5.366740186748297 -9.88135155242062 4.019792236013181 0.008856223795946647 -58.994656339191536 179.99499116019695 71.18978337295182 -57.60713277258514 -52.06007708253583 139.98638096144413 67.4469924177411 177.31807786809307 3.841265683530903 -10.430395030944856 19.939006730801992 0 0 0 -61.53207253611098 -49.438366921179394 40.39534959864448 172.1769591651467 62.394745690726275 134.93851347889984 -2.8571114675880365 -6.606156331900783 -2.260557869483621 0 0 0 4.1993153205770785e-20 12.139723032220818 3.949056724838728e-19 -0.49211178638846337 23.36664995298217 -0.20821572441164232 0 0 0 2.974826119553334 -1.910003126288378 -34.13007347013202 -4.132031167079151 55.15238074262686 -6.480585445295159 -8.06564797179309 36.28683964085757 -1.7000361319693946 -2.844212044688694 10.736658884221855 1.0616687211010782 0 0 0 0 0 0 0 0 0 0 0 0 0 0 0 0 0 0 0 0 0 0 0 0 0 0 0 0 0 0 0 0 0 0 0 0 0 0 0 0 0 0 0 0 0 0 15.524527769861592 0 0 0.13463699958950387 0 0 0 0 0 0 0 0 0 0 -2.851832557331953 -2.0422822715627125 33.71643568186955 3.9911947006667226 55.262493170694704 6.45460932984088 8.111728112852134 36.26755209052152 1.5689769442462986 2.8912322291822465 10.754177286970878 -0.9995353822345067 0 0 0 0 0 0 0 0 0 0 0 0 0 0 0 0 0 0 0 0 0 0 0 0 0 0 0 0 0 0 0 0 0 0 0 0 0 0 0 0 0 0 0 0 0
5.366740186748297 -9.88135155242062 4.009670224089279 0.008856223795946647 -58.994656339191536 179.99499116019695 71.68309101105265 -57.7631904701684 -52.71191869863055 140.02954603367854 67.1179058029629 177.36723934814975 3.841265683530903 -10.430395030944856 19.939006730801992 0 0 0 -61.7780157028887 -49.75921878523614 40.73577354014448 172.8215495521065 62.118149969763145 135.66008656838017 -2.7021321141345758 -6.6844977371087895 -2.261800007942061 0 0 0 -1.577088948337375e-18 11.557265688735287 -1.5960065969946236e-19 -0.4981034833320562 24.93073146775465 -0.22295667961148272 0 0 0 2.824477730265827 -2.22732684138342 -32.620872250074 -5.805364090775036 55.044848339842176 -8.550228024063633 -8.85923397069574 36.28059068130076 -1.8300710035506527 -2.4214804614076906 10.044116655122878 1.2016541524338549 0 0 0 0 0 0 0 0 0 0 0 0 0 0 0 0 0 0 0 0 0 0 0 0 0 0 0 0 0 0 0 0 0 0 0 0 0 0 0 0 0 0 0 0 0 0 15.524527769861592 0 0 0.13463699958950387 0 0 0 0 0 0 0 0 0 0 -2.702303155036357 -2.3526672345259696 32.22268502783188 5.673620842999564 55.153432665885035 8.529368447167135 8.89854421830328 36.262376229666735 1.7002191970320608 2.468329216535336 10.060021572990717 -1.1425695297459673 0 0 0 0 0 0 0 0 0 0 0 0 0 0 0 0 0 0 0 0 0 0 0 0 0 0 0 0 0 0 0 0 0 0 0 0 0 0 0 0 0 0 0 0 0
5.366740186748297 -9.88135155242062 3.9894259318492047 0.008856223795946647 -58.994656339191536 179.99499116019695 72.68650621625564 -58.0663819202042 -54.032206849947755 140.11209832905922 66.45942904301432 177.46179868499425 3.8412648173623096 -10.430395030944856 19.939006730801992 0 0 0 -62.28410297761594 -50.39837609782256 41.43034675298019 174.071916771641 61.55353482757336 137.06481256415762 -2.392060036699187 -6.841189131838783 -2.264926861534497 0 0 0 -7.862060717905946e-19 10.39090159973681 -7.14874181682371e-20 -0.5118418600445153 28.08807057372819 -0.253904697530945 0 0 0 2.495723821665394 -2.855117528028533 -29.571396893401225 -9.12687921434898 54.7249615390995 -12.669461862823523 -10.44918860447203 36.263714635435015 -2.09022140229524 -1.5816286679285745 8.652720975147034 1.4658898708177743 0 0 0 0 0 0 0 0 0 0 0 0 0 0 0 0 0 0 0 0 0 0 0 0 0 0 0 0 0 0 0 0 0 0 0 0 0 0 0 0 0 0 0 0 0 0 15.524525997657134 0 0 0.13463699958950387 0 0 0 0 0 0 0 0 0 0 -2.3760721510578287 -2.966544088876972 29.205069996314577 9.012588626339 54.82995689657191 12.658053831525015 10.474911978455845 36.24763834094337 1.962840972968871 1.6282609810951911 8.665311651823615 -1.4128554272136438 0 0 0 0 0 0 0 0 0 0 0 0 0 0 0 0 0 0 0 0 0 0 0 0 0 0 0 0 0 0 0 0 0 0 0 0 0 0 0 0 0 0 0 0 0
5.366740455140568 -9.88135155242062 3.979303919925303 0.008856223795946647 -58.994656339191536 179.99499116019695 73.19651147337015 -58.213383510660584 -54.70054212641809 140.15156123757876 66.13006784076501 177.50728180281496 3.8412652504466065 -10.430395030944856 19.939006730801992 0 0 0 -62.54442461017173 -50.71659717443964 41.784664818164885 174.67805205324186 61.26571548095206 137.7483160859766 -2.236967784042643 -6.919534256989038 -2.2668107285187347 0 0 0 -7.514545517106047e-19 9.807108043470688 3.252081795447872e-19 -0.5196668396290596 29.679109363270225 -0.27018603288103177 0 0 0 2.3174671846858454 -3.1645570369674525 -28.03302782062291 -10.766689023192969 54.51301723754405 -14.710509653304353 -11.245264412859504 36.2530757900413 -2.220240004312512 -1.1644251556847456 7.954220178350128 1.59016879637685 0 0 0 0 0 0 0 0 0 0 0 0 0 0 0 0 0 0 0 0 0 0 0 0 0 0 0 0 0 0 0 0 0 0 0 0 0 0 0 0 0 0 0 0 0 0 15.524525997657134 0 0 0.13463699958950387 0 0 0 0 0 0 0 0 0 0 -2.199522876922728 -3.269050702033254 27.683053685885326 10.660687944350808 54.61597320439815 14.703369833609864 11.264180573048414 36.23806867181881 2.09412522922646 1.21101088129111 7.965109099344569 -1.5401360565082194 0 0 0 0 0 0 0 0 0 0 0 0 0 0 0 0 0 0 0 0 0 0 0 0 0 0 0 0 0 0 0 0 0 0 0 0 0 0 0 0 0 0 0 0 0
